<svg width="36" height="36" viewBox="0 0 36 36" fill="none" xmlns="http://www.w3.org/2000/svg">
<path fill-rule="evenodd" clip-rule="evenodd" d="M7.19998 7.19995C6.2452 7.19995 5.32952 7.57924 4.65439 8.25437C3.97926 8.9295 3.59998 9.84517 3.59998 10.8V18C3.59998 18.9547 3.97926 19.8704 4.65439 20.5455C5.32952 21.2207 6.2452 21.6 7.19998 21.6V10.8H25.2C25.2 9.84517 24.8207 8.9295 24.1456 8.25437C23.4704 7.57924 22.5548 7.19995 21.6 7.19995H7.19998ZM10.8 18C10.8 17.0452 11.1793 16.1295 11.8544 15.4544C12.5295 14.7792 13.4452 14.4 14.4 14.4H28.8C29.7548 14.4 30.6704 14.7792 31.3456 15.4544C32.0207 16.1295 32.4 17.0452 32.4 18V25.2C32.4 26.1547 32.0207 27.0704 31.3456 27.7455C30.6704 28.4207 29.7548 28.8 28.8 28.8H14.4C13.4452 28.8 12.5295 28.4207 11.8544 27.7455C11.1793 27.0704 10.8 26.1547 10.8 25.2V18ZM21.6 25.2C22.5548 25.2 23.4704 24.8207 24.1456 24.1455C24.8207 23.4704 25.2 22.5547 25.2 21.6C25.2 20.6452 24.8207 19.7295 24.1456 19.0544C23.4704 18.3792 22.5548 18 21.6 18C20.6452 18 19.7295 18.3792 19.0544 19.0544C18.3793 19.7295 18 20.6452 18 21.6C18 22.5547 18.3793 23.4704 19.0544 24.1455C19.7295 24.8207 20.6452 25.2 21.6 25.2Z" fill="#1D1D1D"/>
</svg>
