<svg width="165" height="83" viewBox="0 0 165 83" fill="none" xmlns="http://www.w3.org/2000/svg">
<g filter="url(#filter0_d_1_548)">
<rect y="10" width="125" height="71" rx="16" fill="white"/>
</g>
<g clip-path="url(#clip0_1_548)">
<path d="M56.9163 45.8206C56.9163 49.2907 54.1617 51.8478 50.7812 51.8478C47.4007 51.8478 44.6461 49.2907 44.6461 45.8206C44.6461 42.3261 47.4007 39.7935 50.7812 39.7935C54.1617 39.7935 56.9163 42.3261 56.9163 45.8206ZM54.2307 45.8206C54.2307 43.6522 52.6342 42.1685 50.7812 42.1685C48.9283 42.1685 47.3318 43.6522 47.3318 45.8206C47.3318 47.9674 48.9283 49.4728 50.7812 49.4728C52.6342 49.4728 54.2307 47.9647 54.2307 45.8206Z" fill="#EA4335"/>
<path d="M70.1516 45.8206C70.1516 49.2907 67.397 51.8478 64.0165 51.8478C60.636 51.8478 57.8814 49.2907 57.8814 45.8206C57.8814 42.3288 60.636 39.7935 64.0165 39.7935C67.397 39.7935 70.1516 42.3261 70.1516 45.8206ZM67.466 45.8206C67.466 43.6522 65.8695 42.1685 64.0165 42.1685C62.1636 42.1685 60.5671 43.6522 60.5671 45.8206C60.5671 47.9674 62.1636 49.4728 64.0165 49.4728C65.8695 49.4728 67.466 47.9647 67.466 45.8206Z" fill="#FBBC05"/>
<path d="M82.8354 40.1576V50.9782C82.8354 55.4293 80.1718 57.2473 77.0229 57.2473C74.0588 57.2473 72.2747 55.2935 71.602 53.6956L73.9402 52.7364C74.3566 53.7174 75.3768 54.875 77.0202 54.875C79.0358 54.875 80.2849 53.6494 80.2849 51.3424V50.4755H80.1911C79.59 51.2065 78.4319 51.8451 76.9705 51.8451C73.9126 51.8451 71.1111 49.2201 71.1111 45.8424C71.1111 42.4402 73.9126 39.7935 76.9705 39.7935C78.4292 39.7935 79.5873 40.432 80.1911 41.1413H80.2849V40.1603H82.8354V40.1576ZM80.4751 45.8424C80.4751 43.7201 79.0385 42.1685 77.2104 42.1685C75.3575 42.1685 73.8051 43.7201 73.8051 45.8424C73.8051 47.9429 75.3575 49.4728 77.2104 49.4728C79.0385 49.4728 80.4751 47.9429 80.4751 45.8424Z" fill="#4285F4"/>
<path d="M87.0404 33.8152V51.4782H84.4209V33.8152H87.0404Z" fill="#34A853"/>
<path d="M97.2482 47.8044L99.3328 49.1739C98.66 50.1549 97.0387 51.8451 94.2372 51.8451C90.7629 51.8451 88.1683 49.1984 88.1683 45.8179C88.1683 42.2337 90.785 39.7908 93.9367 39.7908C97.1104 39.7908 98.6628 42.2799 99.1701 43.625L99.4486 44.3098L91.2731 47.6467C91.899 48.856 92.8723 49.4728 94.2372 49.4728C95.6049 49.4728 96.5534 48.8098 97.2482 47.8044ZM90.8319 45.6359L96.297 43.3995C95.9964 42.6467 95.092 42.1223 94.0277 42.1223C92.6628 42.1223 90.7629 43.3098 90.8319 45.6359Z" fill="#EA4335"/>
<path d="M34.7308 44.2527V41.6956H43.4744C43.5598 42.1413 43.604 42.6684 43.604 43.2391C43.604 45.1576 43.0718 47.5299 41.3567 49.2201C39.6885 50.932 37.5571 51.8451 34.7336 51.8451C29.5001 51.8451 25.0994 47.644 25.0994 42.4864C25.0994 37.3288 29.5001 33.1277 34.7336 33.1277C37.6288 33.1277 39.6913 34.2473 41.2409 35.7065L39.41 37.5108C38.2988 36.4837 36.7933 35.6848 34.7308 35.6848C30.9091 35.6848 27.9201 38.7201 27.9201 42.4864C27.9201 46.2527 30.9091 49.288 34.7308 49.288C37.2097 49.288 38.6214 48.307 39.5258 47.4157C40.2593 46.6929 40.7418 45.6603 40.9321 44.25L34.7308 44.2527Z" fill="#4285F4"/>
</g>
<defs>
<filter id="filter0_d_1_548" x="-40" y="0" width="205" height="151" filterUnits="userSpaceOnUse" color-interpolation-filters="sRGB">
<feFlood flood-opacity="0" result="BackgroundImageFix"/>
<feColorMatrix in="SourceAlpha" type="matrix" values="0 0 0 0 0 0 0 0 0 0 0 0 0 0 0 0 0 0 127 0" result="hardAlpha"/>
<feOffset dy="30"/>
<feGaussianBlur stdDeviation="20"/>
<feColorMatrix type="matrix" values="0 0 0 0 0.831373 0 0 0 0 0.85098 0 0 0 0 0.909804 0 0 0 0.1 0"/>
<feBlend mode="normal" in2="BackgroundImageFix" result="effect1_dropShadow_1_548"/>
<feBlend mode="normal" in="SourceGraphic" in2="effect1_dropShadow_1_548" result="shape"/>
</filter>
<clipPath id="clip0_1_548">
<rect width="75" height="25" fill="white" transform="translate(25 33)"/>
</clipPath>
</defs>
</svg>
