<svg width="52" height="52" viewBox="0 0 52 52" fill="none" xmlns="http://www.w3.org/2000/svg">
<rect width="52" height="52" rx="10" fill="#F0F0F0"/>
<path d="M24.4 13.2C23.9756 13.2 23.5687 13.3686 23.2686 13.6686C22.9686 13.9687 22.8 14.3757 22.8 14.8C22.8 15.2244 22.9686 15.6313 23.2686 15.9314C23.5687 16.2314 23.9756 16.4 24.4 16.4H27.6C28.0243 16.4 28.4313 16.2314 28.7314 15.9314C29.0314 15.6313 29.2 15.2244 29.2 14.8C29.2 14.3757 29.0314 13.9687 28.7314 13.6686C28.4313 13.3686 28.0243 13.2 27.6 13.2H24.4Z" fill="#121212"/>
<path fill-rule="evenodd" clip-rule="evenodd" d="M16.4 18C16.4 17.1513 16.7372 16.3374 17.3373 15.7372C17.9374 15.1371 18.7513 14.8 19.6 14.8C19.6 16.073 20.1057 17.2939 21.0059 18.1941C21.9061 19.0943 23.127 19.6 24.4 19.6H27.6C28.8731 19.6 30.094 19.0943 30.9941 18.1941C31.8943 17.2939 32.4 16.073 32.4 14.8C33.2487 14.8 34.0626 15.1371 34.6628 15.7372C35.2629 16.3374 35.6 17.1513 35.6 18V35.6C35.6 36.4487 35.2629 37.2626 34.6628 37.8627C34.0626 38.4628 33.2487 38.8 32.4 38.8H19.6C18.7513 38.8 17.9374 38.4628 17.3373 37.8627C16.7372 37.2626 16.4 36.4487 16.4 35.6V18ZM21.2 24.4C20.7757 24.4 20.3687 24.5686 20.0687 24.8686C19.7686 25.1687 19.6 25.5756 19.6 26C19.6 26.4243 19.7686 26.8313 20.0687 27.1314C20.3687 27.4314 20.7757 27.6 21.2 27.6H21.216C21.6404 27.6 22.0473 27.4314 22.3474 27.1314C22.6475 26.8313 22.816 26.4243 22.816 26C22.816 25.5756 22.6475 25.1687 22.3474 24.8686C22.0473 24.5686 21.6404 24.4 21.216 24.4H21.2ZM26 24.4C25.5757 24.4 25.1687 24.5686 24.8687 24.8686C24.5686 25.1687 24.4 25.5756 24.4 26C24.4 26.4243 24.5686 26.8313 24.8687 27.1314C25.1687 27.4314 25.5757 27.6 26 27.6H30.8C31.2244 27.6 31.6313 27.4314 31.9314 27.1314C32.2315 26.8313 32.4 26.4243 32.4 26C32.4 25.5756 32.2315 25.1687 31.9314 24.8686C31.6313 24.5686 31.2244 24.4 30.8 24.4H26ZM21.2 30.8C20.7757 30.8 20.3687 30.9686 20.0687 31.2686C19.7686 31.5687 19.6 31.9756 19.6 32.4C19.6 32.8243 19.7686 33.2313 20.0687 33.5314C20.3687 33.8314 20.7757 34 21.2 34H21.216C21.6404 34 22.0473 33.8314 22.3474 33.5314C22.6475 33.2313 22.816 32.8243 22.816 32.4C22.816 31.9756 22.6475 31.5687 22.3474 31.2686C22.0473 30.9686 21.6404 30.8 21.216 30.8H21.2ZM26 30.8C25.5757 30.8 25.1687 30.9686 24.8687 31.2686C24.5686 31.5687 24.4 31.9756 24.4 32.4C24.4 32.8243 24.5686 33.2313 24.8687 33.5314C25.1687 33.8314 25.5757 34 26 34H30.8C31.2244 34 31.6313 33.8314 31.9314 33.5314C32.2315 33.2313 32.4 32.8243 32.4 32.4C32.4 31.9756 32.2315 31.5687 31.9314 31.2686C31.6313 30.9686 31.2244 30.8 30.8 30.8H26Z" fill="#1D1D1D"/>
</svg>
