<svg width="24" height="24" viewBox="0 0 24 24" fill="none" xmlns="http://www.w3.org/2000/svg">
<path d="M12 2C10.1441 2.00212 8.36489 2.7403 7.05259 4.05259C5.7403 5.36489 5.00212 7.14413 5 9C5 14.353 11.036 20.45 11.293 20.707L12 21.414L12.707 20.707C12.964 20.45 19 14.353 19 9C18.9979 7.14413 18.2597 5.36489 16.9474 4.05259C15.6351 2.7403 13.8559 2.00212 12 2ZM12 18.533C10.471 16.825 7 12.553 7 9C7 7.67392 7.52678 6.40215 8.46447 5.46447C9.40215 4.52678 10.6739 4 12 4C13.3261 4 14.5979 4.52678 15.5355 5.46447C16.4732 6.40215 17 7.67392 17 9C17 12.546 13.527 16.823 12 18.533Z" fill="#121212"/>
<path d="M12 6C11.4067 6 10.8266 6.17595 10.3333 6.50559C9.83994 6.83524 9.45543 7.30377 9.22836 7.85195C9.0013 8.40013 8.94189 9.00333 9.05765 9.58527C9.1734 10.1672 9.45912 10.7018 9.87868 11.1213C10.2982 11.5409 10.8328 11.8266 11.4147 11.9424C11.9967 12.0581 12.5999 11.9987 13.1481 11.7716C13.6962 11.5446 14.1648 11.1601 14.4944 10.6667C14.8241 10.1734 15 9.59334 15 9C15 8.20435 14.6839 7.44129 14.1213 6.87868C13.5587 6.31607 12.7957 6 12 6ZM12 10C11.8022 10 11.6089 9.94135 11.4444 9.83147C11.28 9.72159 11.1518 9.56541 11.0761 9.38268C11.0004 9.19996 10.9806 8.99889 11.0192 8.80491C11.0578 8.61093 11.153 8.43275 11.2929 8.29289C11.4327 8.15304 11.6109 8.0578 11.8049 8.01921C11.9989 7.98063 12.2 8.00043 12.3827 8.07612C12.5654 8.15181 12.7216 8.27998 12.8315 8.44443C12.9414 8.60888 13 8.80222 13 9C13 9.26522 12.8946 9.51957 12.7071 9.70711C12.5196 9.89464 12.2652 10 12 10Z" fill="#121212"/>
</svg>
