<svg width="207" height="103" viewBox="0 0 207 103" fill="none" xmlns="http://www.w3.org/2000/svg">
<g filter="url(#filter0_d_1_557)">
<rect x="40" y="30" width="127" height="71.7176" rx="16" fill="white"/>
</g>
<g clip-path="url(#clip0_1_557)">
<path d="M90.1004 67.3342L89.5572 68.87H89.5119C89.4214 68.5237 89.2554 67.9967 88.9838 67.3643L86.0715 60.0617H83.2195V71.7008H85.1057V64.5186C85.1057 64.0669 85.1057 63.5549 85.0907 62.9225C85.0756 62.6063 85.0454 62.3654 85.0303 62.1847H85.0756C85.1661 62.6364 85.2717 62.9677 85.3472 63.1785L88.848 71.6706H90.1758L93.6465 63.1032C93.7219 62.9075 93.7973 62.516 93.8728 62.1847H93.9181C93.8728 63.043 93.8426 63.8109 93.8275 64.2777V71.6556H95.8344V60.0316H93.0881L90.1004 67.3342ZM97.7357 63.314H99.6974V71.6556H97.7357V63.314ZM98.7316 59.7907C98.3997 59.7907 98.1281 59.9111 97.9017 60.1219C97.6754 60.3327 97.5547 60.6038 97.5547 60.935C97.5547 61.2512 97.6754 61.5222 97.9017 61.733C98.1281 61.9438 98.3997 62.0492 98.7316 62.0492C99.0636 62.0492 99.3503 61.9288 99.5616 61.733C99.7879 61.5222 99.9086 61.2512 99.9086 60.935C99.9086 60.6188 99.7879 60.3478 99.5616 60.1219C99.3654 59.9111 99.0787 59.7907 98.7316 59.7907ZM106.654 63.2387C106.292 63.1634 105.914 63.1183 105.552 63.1183C104.662 63.1183 103.847 63.314 103.168 63.7055C102.489 64.097 101.946 64.639 101.599 65.3166C101.237 66.0092 101.055 66.8072 101.055 67.7257C101.055 68.5237 101.237 69.2314 101.584 69.8789C101.931 70.5113 102.414 71.0232 103.062 71.3695C103.681 71.7158 104.405 71.8965 105.22 71.8965C106.156 71.8965 106.955 71.7008 107.589 71.3394L107.604 71.3243V69.5175L107.529 69.5777C107.242 69.7885 106.91 69.9692 106.578 70.0746C106.231 70.1951 105.914 70.2553 105.643 70.2553C104.858 70.2553 104.239 70.0294 103.802 69.5326C103.349 69.0507 103.123 68.3882 103.123 67.5601C103.123 66.7018 103.349 66.0243 103.817 65.5274C104.285 65.0305 104.903 64.7745 105.658 64.7745C106.292 64.7745 106.94 64.9853 107.529 65.4069L107.604 65.4672V63.5549L107.589 63.5399C107.333 63.4345 107.046 63.314 106.654 63.2387ZM113.127 63.1785C112.644 63.1785 112.192 63.3291 111.799 63.6453C111.467 63.9163 111.241 64.3078 111.045 64.7745H111.03V63.314H109.068V71.6556H111.03V67.3945C111.03 66.6717 111.181 66.0694 111.513 65.6328C111.845 65.1811 112.267 64.9552 112.78 64.9552C112.961 64.9552 113.142 65.0004 113.369 65.0305C113.58 65.0907 113.731 65.151 113.836 65.2263L113.912 65.2865V63.3291L113.867 63.314C113.731 63.2237 113.459 63.1785 113.127 63.1785ZM118.469 63.1333C117.096 63.1333 115.994 63.5399 115.225 64.3379C114.44 65.1359 114.063 66.2351 114.063 67.6203C114.063 68.9152 114.455 69.9692 115.209 70.7371C115.964 71.49 116.99 71.8814 118.273 71.8814C119.616 71.8814 120.687 71.4749 121.457 70.6618C122.241 69.8488 122.618 68.7646 122.618 67.4246C122.618 66.0996 122.256 65.0456 121.517 64.2777C120.808 63.5098 119.767 63.1333 118.469 63.1333ZM120.038 69.5476C119.676 70.0144 119.103 70.2402 118.393 70.2402C117.684 70.2402 117.111 70.0144 116.703 69.5175C116.296 69.0507 116.1 68.3732 116.1 67.5149C116.1 66.6266 116.311 65.949 116.703 65.4672C117.111 64.9853 117.669 64.7444 118.378 64.7444C119.072 64.7444 119.616 64.9703 120.008 65.4371C120.4 65.9038 120.612 66.5814 120.612 67.4697C120.581 68.3732 120.415 69.0808 120.038 69.5476ZM126.994 66.7771C126.376 66.5212 125.983 66.3254 125.802 66.1598C125.651 66.0092 125.576 65.7984 125.576 65.5274C125.576 65.3015 125.667 65.0757 125.893 64.9251C126.119 64.7745 126.376 64.6993 126.753 64.6993C127.085 64.6993 127.432 64.7595 127.764 64.8498C128.096 64.9402 128.398 65.0757 128.639 65.2564L128.715 65.3166V63.4796L128.669 63.4646C128.443 63.3742 128.141 63.2839 127.779 63.2086C127.417 63.1484 127.085 63.1183 126.813 63.1183C125.878 63.1183 125.108 63.3441 124.505 63.841C123.901 64.3078 123.614 64.9402 123.614 65.678C123.614 66.0694 123.675 66.4158 123.811 66.7018C123.946 66.9879 124.143 67.2589 124.414 67.4848C124.686 67.6956 125.078 67.9365 125.621 68.1624C126.074 68.3581 126.421 68.5087 126.632 68.6291C126.844 68.7496 126.979 68.8851 127.085 68.9905C127.16 69.111 127.206 69.2615 127.206 69.4573C127.206 70.0144 126.783 70.2854 125.923 70.2854C125.591 70.2854 125.244 70.2252 124.837 70.0897C124.429 69.9542 124.052 69.7584 123.735 69.5326L123.66 69.4723V71.3846L123.705 71.3996C123.992 71.5351 124.339 71.6255 124.761 71.7309C125.184 71.8062 125.561 71.8664 125.893 71.8664C126.904 71.8664 127.734 71.6405 128.322 71.1437C128.926 70.6618 129.243 70.0445 129.243 69.2465C129.243 68.6894 129.092 68.1925 128.76 67.8161C128.322 67.4547 127.779 67.0783 126.994 66.7771ZM134.419 63.1333C133.045 63.1333 131.944 63.5399 131.174 64.3379C130.405 65.1359 130.012 66.2351 130.012 67.6203C130.012 68.9152 130.405 69.9692 131.159 70.7371C131.914 71.49 132.94 71.8814 134.222 71.8814C135.565 71.8814 136.637 71.4749 137.406 70.6618C138.191 69.8488 138.568 68.7646 138.568 67.4246C138.568 66.0996 138.206 65.0456 137.467 64.2777C136.757 63.5098 135.716 63.1333 134.419 63.1333ZM135.973 69.5476C135.611 70.0144 135.037 70.2402 134.328 70.2402C133.604 70.2402 133.045 70.0144 132.638 69.5175C132.231 69.0507 132.034 68.3732 132.034 67.5149C132.034 66.6266 132.246 65.949 132.638 65.4672C133.045 64.9853 133.604 64.7444 134.313 64.7444C134.992 64.7444 135.55 64.9703 135.943 65.4371C136.335 65.9038 136.546 66.5814 136.546 67.4697C136.546 68.3732 136.35 69.0808 135.973 69.5476ZM149.055 64.9251V63.314H147.079V60.8447L147.018 60.8597L145.147 61.4168L145.102 61.4319V63.314H142.144V62.26C142.144 61.7782 142.265 61.4018 142.476 61.1609C142.688 60.92 143.005 60.7995 143.397 60.7995C143.668 60.7995 143.955 60.8597 144.272 60.9952L144.347 61.0404V59.339L144.302 59.3239C144.031 59.2336 143.668 59.1733 143.201 59.1733C142.612 59.1733 142.099 59.3089 141.631 59.5347C141.164 59.7907 140.817 60.137 140.56 60.6038C140.303 61.0555 140.168 61.5674 140.168 62.1546V63.314H138.795V64.9101H140.168V71.6556H142.144V64.9251H145.102V69.2164C145.102 70.978 145.932 71.8664 147.592 71.8664C147.863 71.8664 148.15 71.8212 148.422 71.776C148.708 71.7158 148.92 71.6405 149.04 71.5803L149.055 71.5653V69.9542L148.98 70.0144C148.859 70.0897 148.754 70.1499 148.573 70.1951C148.422 70.2402 148.286 70.2553 148.18 70.2553C147.788 70.2553 147.516 70.1649 147.32 69.9391C147.139 69.7283 147.049 69.382 147.049 68.87V64.9251H149.055Z" fill="#737373"/>
<path d="M57.9294 56.147H67.1793V65.3769H57.9294V56.147Z" fill="#F25022"/>
<path d="M68.145 56.147H77.3949V65.3769H68.145V56.147Z" fill="#7FBA00"/>
<path d="M57.9294 66.3406H67.1793V75.5705H57.9294V66.3406Z" fill="#00A4EF"/>
<path d="M68.145 66.3406H77.3949V75.5705H68.145V66.3406Z" fill="#FFB900"/>
</g>
<defs>
<filter id="filter0_d_1_557" x="0" y="0" width="207" height="151.718" filterUnits="userSpaceOnUse" color-interpolation-filters="sRGB">
<feFlood flood-opacity="0" result="BackgroundImageFix"/>
<feColorMatrix in="SourceAlpha" type="matrix" values="0 0 0 0 0 0 0 0 0 0 0 0 0 0 0 0 0 0 127 0" result="hardAlpha"/>
<feOffset dy="10"/>
<feGaussianBlur stdDeviation="20"/>
<feColorMatrix type="matrix" values="0 0 0 0 0.831373 0 0 0 0 0.85098 0 0 0 0 0.909804 0 0 0 0.2 0"/>
<feBlend mode="normal" in2="BackgroundImageFix" result="effect1_dropShadow_1_557"/>
<feBlend mode="normal" in="SourceGraphic" in2="effect1_dropShadow_1_557" result="shape"/>
</filter>
<clipPath id="clip0_1_557">
<rect width="91.1412" height="19.4235" fill="white" transform="translate(57.9294 56.147)"/>
</clipPath>
</defs>
</svg>
