<svg width="65" height="25" viewBox="0 0 65 25" fill="none" xmlns="http://www.w3.org/2000/svg">
<g clip-path="url(#clip0_1_546)">
<path d="M53.0367 23.5328C59.0909 23.5328 64.017 18.527 64.017 12.375C64.017 6.21945 59.0909 1.21729 53.0367 1.21729C46.9813 1.21729 42.0564 6.21945 42.0564 12.375C42.0564 18.527 46.9813 23.5328 53.0367 23.5328ZM53.0367 8.39636C55.1943 8.39636 56.9514 10.1811 56.9514 12.3738C56.9514 14.5665 55.1931 16.3488 53.0355 16.3488C50.8767 16.3488 49.122 14.5665 49.122 12.3726C49.122 10.1775 50.8779 8.39393 53.0355 8.39393L53.0367 8.39636ZM11.6097 23.5328C17.6639 23.5328 22.59 18.527 22.59 12.375C22.59 6.21945 17.6639 1.21729 11.6097 1.21729C5.55672 1.21729 0.62941 6.21945 0.62941 12.375C0.62941 18.527 5.55672 23.5328 11.6097 23.5328ZM11.6097 8.39636C13.7685 8.39636 15.5244 10.1811 15.5244 12.3738C15.5244 14.5665 13.7685 16.3488 11.6097 16.3488C9.45215 16.3488 7.69747 14.5665 7.69747 12.3726C7.69747 10.1775 9.45335 8.39393 11.6097 8.39393V8.39636ZM32.3172 8.14504L28.9461 1.36298H21.053L28.4254 16.1995V23.1843H36.2102V16.1995L43.5825 1.36298H35.6859L32.3184 8.14504H32.3172Z" fill="#EE2E24"/>
</g>
<defs>
<clipPath id="clip0_1_546">
<rect width="63.7412" height="24.2824" fill="white" transform="translate(0.62941 0.282471)"/>
</clipPath>
</defs>
</svg>
