<svg width="24" height="24" viewBox="0 0 24 24" fill="none" xmlns="http://www.w3.org/2000/svg">
<path d="M22.191 15.489L22.153 14.662L15.67 13.736L14.355 16.31C12.9666 15.5283 11.6974 14.5517 10.586 13.41C9.43159 12.3004 8.44792 11.0259 7.667 9.62801L10.467 8.22801L7.667 1.70801L6.907 1.81801C5.61986 1.99531 4.42738 2.59296 3.515 3.51801C0.342 6.68701 1.585 12.9 6.343 17.657C9.325 20.638 12.876 22.239 15.894 22.238C16.7376 22.2674 17.5784 22.1274 18.367 21.8263C19.1555 21.5252 19.8757 21.0691 20.485 20.485C21.1074 19.8208 21.5813 19.0319 21.8755 18.1705C22.1696 17.3092 22.2772 16.3951 22.191 15.489ZM19.071 19.071C16.771 21.371 11.59 20.071 7.757 16.243C3.924 12.415 2.629 7.22901 4.929 4.92901C5.35774 4.49451 5.88248 4.16672 6.461 3.97201L7.881 7.28501L6.774 7.83801C6.5342 7.95811 6.32087 8.12498 6.14655 8.3288C5.97224 8.53262 5.84048 8.76926 5.75904 9.02478C5.67759 9.28031 5.6481 9.54955 5.67231 9.81664C5.69652 10.0837 5.77394 10.3433 5.9 10.58C6.77535 12.1482 7.87607 13.5794 9.167 14.828C10.4159 16.1045 11.8414 17.1952 13.4 18.067C13.6402 18.1974 13.9041 18.2785 14.1761 18.3054C14.4482 18.3324 14.7228 18.3047 14.984 18.224C15.2394 18.1445 15.476 18.014 15.6796 17.8404C15.8831 17.6668 16.0492 17.4537 16.168 17.214L16.815 15.92L20.182 16.401C20.1436 17.3954 19.7493 18.3429 19.071 19.071Z" fill="white"/>
</svg>
